<?xml version="1.0" encoding="UTF-8" standalone="no"?>
<!-- Created with Inkscape (http://www.inkscape.org/) -->

<svg
   xmlns:dc="http://purl.org/dc/elements/1.1/"
   xmlns:cc="http://creativecommons.org/ns#"
   xmlns:rdf="http://www.w3.org/1999/02/22-rdf-syntax-ns#"
   xmlns:svg="http://www.w3.org/2000/svg"
   xmlns="http://www.w3.org/2000/svg"
   xmlns:xlink="http://www.w3.org/1999/xlink"
   xmlns:sodipodi="http://sodipodi.sourceforge.net/DTD/sodipodi-0.dtd"
   xmlns:inkscape="http://www.inkscape.org/namespaces/inkscape"
   width="210mm"
   height="297mm"
   id="svg2987"
   version="1.1"
   inkscape:version="0.48.2 r9819"
   sodipodi:docname="New document 2">
  <defs
     id="defs3">
    <linearGradient
       inkscape:collect="always"
       id="linearGradient3211">
      <stop
         style="stop-color:#b0e0e6;stop-opacity:1"
         offset="0"
         id="stop3213" />
      <stop
         style="stop-color:#ffffff;stop-opacity:1"
         offset="1"
         id="stop3215" />
    </linearGradient>
    <linearGradient
       id="linearGradient3003">
      <stop
         style="stop-color:#008080;stop-opacity:1;"
         offset="0"
         id="stop3005" />
      <stop
         style="stop-color:#4171b3;stop-opacity:0.12711865;"
         offset="1"
         id="stop3007" />
    </linearGradient>
    <linearGradient
       inkscape:collect="always"
       xlink:href="#linearGradient3211"
       id="linearGradient3217"
       x1="2375.1143"
       y1="154.0818"
       x2="2395.4143"
       y2="2001.3928"
       gradientUnits="userSpaceOnUse"
       gradientTransform="translate(50.750304,35.525213)" />
  </defs>
  <sodipodi:namedview
     inkscape:document-units="mm"
     id="base"
     pagecolor="#ffffff"
     bordercolor="#666666"
     borderopacity="1.0"
     inkscape:pageopacity="0.0"
     inkscape:pageshadow="2"
     inkscape:zoom="0.19704315"
     inkscape:cx="2033.4409"
     inkscape:cy="-404.31762"
     inkscape:current-layer="layer1"
     showgrid="false"
     inkscape:window-width="1227"
     inkscape:window-height="751"
     inkscape:window-x="48"
     inkscape:window-y="0"
     inkscape:window-maximized="0" />
  <metadata
     id="metadata4">
    <rdf:RDF>
      <cc:Work
         rdf:about="">
        <dc:format>image/svg+xml</dc:format>
        <dc:type
           rdf:resource="http://purl.org/dc/dcmitype/StillImage" />
        <dc:title></dc:title>
      </cc:Work>
    </rdf:RDF>
  </metadata>
  <g
     inkscape:label="Layer 1"
     inkscape:groupmode="layer"
     id="layer1">
    <rect
       style="fill:url(#linearGradient3217);fill-opacity:1;fill-rule:evenodd;stroke:#000000;stroke-width:1px;stroke-linecap:butt;stroke-linejoin:miter;stroke-opacity:1"
       id="rect2993"
       width="4025.1968"
       height="2267.7166"
       x="135.57854"
       y="158.52954"
       inkscape:export-xdpi="25.388779"
       inkscape:export-ydpi="25.388779" />
    <path
       sodipodi:type="arc"
       style="fill:#3e9ade"
       id="path3804"
       sodipodi:cx="733.34192"
       sodipodi:cy="593.0719"
       sodipodi:rx="170.01352"
       sodipodi:ry="139.56334"
       d="m 903.35544,593.0719 a 170.01352,139.56334 0 1 1 -340.02704,0 170.01352,139.56334 0 1 1 340.02704,0 z"
       transform="translate(-243.60146,-15.225091)"
       inkscape:export-filename="/Users/hadaytullah/rect2993.png"
       inkscape:export-xdpi="25.388779"
       inkscape:export-ydpi="25.388779" />
    <path
       sodipodi:type="arc"
       style="fill:#3e9ade"
       id="path3806"
       sodipodi:cx="1002.3185"
       sodipodi:cy="577.84686"
       sodipodi:rx="200.4637"
       sodipodi:ry="241.06395"
       d="m 1202.7822,577.84686 a 200.4637,241.06395 0 1 1 -400.92742,0 200.4637,241.06395 0 1 1 400.92742,0 z"
       transform="translate(-289.27673,-20.300122)"
       inkscape:export-filename="/Users/hadaytullah/rect2993.png"
       inkscape:export-xdpi="25.388779"
       inkscape:export-ydpi="25.388779" />
    <path
       sodipodi:type="arc"
       style="fill:#3e9ade"
       id="path3808"
       sodipodi:cx="1306.8203"
       sodipodi:cy="562.62177"
       sodipodi:rx="144.63837"
       sodipodi:ry="170.01352"
       d="m 1451.4587,562.62177 a 144.63837,170.01352 0 1 1 -289.2768,0 144.63837,170.01352 0 1 1 289.2768,0 z"
       transform="translate(-324.80195,5.0750303)"
       inkscape:export-filename="/Users/hadaytullah/rect2993.png"
       inkscape:export-xdpi="25.388779"
       inkscape:export-ydpi="25.388779" />
    <path
       sodipodi:type="arc"
       style="fill:#0066cc"
       id="path3804-6"
       sodipodi:cx="733.34192"
       sodipodi:cy="593.0719"
       sodipodi:rx="170.01352"
       sodipodi:ry="139.56334"
       d="m 903.35544,593.0719 a 170.01352,139.56334 0 1 1 -340.02704,0 170.01352,139.56334 0 1 1 340.02704,0 z"
       transform="matrix(0.65408803,0,0,0.58947369,3130.7671,285.88819)"
       inkscape:export-filename="/Users/hadaytullah/rect2993.png"
       inkscape:export-xdpi="25.388779"
       inkscape:export-ydpi="25.388779" />
    <path
       transform="matrix(0.65408803,0,0,0.58947369,3100.8915,282.89659)"
       sodipodi:type="arc"
       style="fill:#0066cc"
       id="path3806-2"
       sodipodi:cx="1002.3185"
       sodipodi:cy="577.84686"
       sodipodi:rx="200.4637"
       sodipodi:ry="241.06395"
       d="m 1202.7822,577.84686 a 200.4637,241.06395 0 1 1 -400.92742,0 200.4637,241.06395 0 1 1 400.92742,0 z"
       inkscape:export-filename="/Users/hadaytullah/rect2993.png"
       inkscape:export-xdpi="25.388779"
       inkscape:export-ydpi="25.388779" />
    <path
       sodipodi:type="arc"
       style="fill:#0066cc"
       id="path3808-3"
       sodipodi:cx="1306.8203"
       sodipodi:cy="562.62177"
       sodipodi:rx="144.63837"
       sodipodi:ry="170.01352"
       d="m 1451.4587,562.62177 a 144.63837,170.01352 0 1 1 -289.2768,0 144.63837,170.01352 0 1 1 289.2768,0 z"
       transform="matrix(0.65408803,0,0,0.58947369,3077.6549,297.85457)"
       inkscape:export-filename="/Users/hadaytullah/rect2993.png"
       inkscape:export-xdpi="25.388779"
       inkscape:export-ydpi="25.388779" />
    <path
       sodipodi:type="arc"
       style="fill:#3e9ade"
       id="path3804-6-9"
       sodipodi:cx="733.34192"
       sodipodi:cy="593.0719"
       sodipodi:rx="170.01352"
       sodipodi:ry="139.56334"
       d="m 903.35544,593.0719 a 170.01352,139.56334 0 1 1 -340.02704,0 170.01352,139.56334 0 1 1 340.02704,0 z"
       transform="matrix(0.85534588,0,0,0.75789474,1705.4974,-5.9673058)"
       inkscape:export-filename="/Users/hadaytullah/rect2993.png"
       inkscape:export-xdpi="25.388779"
       inkscape:export-ydpi="25.388779" />
    <path
       transform="matrix(0.85534588,0,0,0.75789474,1666.4293,-9.8136458)"
       sodipodi:type="arc"
       style="fill:#3e9ade"
       id="path3806-2-5"
       sodipodi:cx="1002.3185"
       sodipodi:cy="577.84686"
       sodipodi:rx="200.4637"
       sodipodi:ry="241.06395"
       d="m 1202.7822,577.84686 a 200.4637,241.06395 0 1 1 -400.92742,0 200.4637,241.06395 0 1 1 400.92742,0 z"
       inkscape:export-filename="/Users/hadaytullah/rect2993.png"
       inkscape:export-xdpi="25.388779"
       inkscape:export-ydpi="25.388779" />
    <path
       sodipodi:type="arc"
       style="fill:#3e9ade"
       id="path3808-3-3"
       sodipodi:cx="1306.8203"
       sodipodi:cy="562.62177"
       sodipodi:rx="144.63837"
       sodipodi:ry="170.01352"
       d="m 1451.4587,562.62177 a 144.63837,170.01352 0 1 1 -289.2768,0 144.63837,170.01352 0 1 1 289.2768,0 z"
       transform="matrix(0.85534588,0,0,0.75789474,1636.043,9.4180542)"
       inkscape:export-filename="/Users/hadaytullah/rect2993.png"
       inkscape:export-xdpi="25.388779"
       inkscape:export-ydpi="25.388779" />
    <path
       sodipodi:type="arc"
       style="fill:#99ccff"
       id="path3804-6-3"
       sodipodi:cx="733.34192"
       sodipodi:cy="593.0719"
       sodipodi:rx="170.01352"
       sodipodi:ry="139.56334"
       d="m 903.35544,593.0719 a 170.01352,139.56334 0 1 1 -340.02704,0 170.01352,139.56334 0 1 1 340.02704,0 z"
       transform="matrix(0.8742138,0,0,0.84210526,964.06432,326.42656)"
       inkscape:export-filename="/Users/hadaytullah/rect2993.png"
       inkscape:export-xdpi="25.388779"
       inkscape:export-ydpi="25.388779" />
    <path
       transform="matrix(0.8742138,0,0,0.84210526,934.28448,317.07781)"
       sodipodi:type="arc"
       style="fill:#99ccff"
       id="path3806-2-6"
       sodipodi:cx="1002.3185"
       sodipodi:cy="577.84686"
       sodipodi:rx="200.4637"
       sodipodi:ry="241.06395"
       d="m 1202.7822,577.84686 a 200.4637,241.06395 0 1 1 -400.92742,0 200.4637,241.06395 0 1 1 400.92742,0 z"
       inkscape:export-filename="/Users/hadaytullah/rect2993.png"
       inkscape:export-xdpi="25.388779"
       inkscape:export-ydpi="25.388779" />
    <path
       sodipodi:type="arc"
       style="fill:#99ccff"
       id="path3808-3-0"
       sodipodi:cx="1306.8203"
       sodipodi:cy="562.62177"
       sodipodi:rx="144.63837"
       sodipodi:ry="170.01352"
       d="m 1451.4587,562.62177 a 144.63837,170.01352 0 1 1 -289.2768,0 144.63837,170.01352 0 1 1 289.2768,0 z"
       transform="matrix(0.8742138,0,0,0.84210526,893.07782,343.5214)"
       inkscape:export-filename="/Users/hadaytullah/rect2993.png"
       inkscape:export-xdpi="25.388779"
       inkscape:export-ydpi="25.388779" />
    <path
       sodipodi:type="arc"
       style="fill:#ff9933"
       id="path3869"
       sodipodi:cx="3133.8313"
       sodipodi:cy="514.40894"
       sodipodi:rx="119.26321"
       sodipodi:ry="111.65067"
       d="m 3253.0945,514.40894 a 119.26321,111.65067 0 1 1 -238.5264,0 119.26321,111.65067 0 1 1 238.5264,0 z"
       inkscape:export-filename="/Users/hadaytullah/rect2993.png"
       inkscape:export-xdpi="25.388779"
       inkscape:export-ydpi="25.388779" />
    <path
       sodipodi:type="star"
       style="fill:#ff9933"
       id="path3871"
       sodipodi:sides="5"
       sodipodi:cx="2892.7673"
       sodipodi:cy="813.83575"
       sodipodi:r1="331.396"
       sodipodi:r2="40.615959"
       sodipodi:arg1="0.47734538"
       sodipodi:arg2="1.1056639"
       inkscape:flatsided="false"
       inkscape:rounded="0"
       inkscape:randomized="0"
       d="m 3187.1191,966.08667 -276.1338,-115.94991 -72.0575,290.69224 24.9449,-298.44934 -298.7318,21.29815 291.5506,-68.50196 -112.5689,-277.5293 155.2433,256.11284 229.1604,-192.82069 -195.605,226.7884 z"
       inkscape:transform-center-x="16.637328"
       inkscape:transform-center-y="15.402041"
       transform="translate(248.67649,-284.2017)"
       inkscape:export-filename="/Users/hadaytullah/rect2993.png"
       inkscape:export-xdpi="25.388779"
       inkscape:export-ydpi="25.388779" />
    <path
       sodipodi:type="star"
       style="fill:#ff9933"
       id="path3873"
       sodipodi:sides="5"
       sodipodi:cx="2623.7908"
       sodipodi:cy="1123.4126"
       sodipodi:r1="224.73848"
       sodipodi:r2="27.543993"
       sodipodi:arg1="0.44344834"
       sodipodi:arg2="1.0717669"
       inkscape:flatsided="false"
       inkscape:rounded="0"
       inkscape:randomized="0"
       d="m 2826.792,1219.8382 -189.8194,-72.2407 -42.1572,198.6779 10.0475,-202.8526 -201.9811,21.301 196.0291,-53.1291 -82.674,-185.51315 111.1051,170.01695 150.8858,-135.95439 -127.3624,158.20539 z"
       inkscape:transform-center-x="166.42793"
       inkscape:transform-center-y="211.26791"
       transform="matrix(0.78939021,0.61389176,-0.61389176,0.78939021,1759.9029,-1972.9755)"
       inkscape:export-filename="/Users/hadaytullah/rect2993.png"
       inkscape:export-xdpi="25.388779"
       inkscape:export-ydpi="25.388779" />
  </g>
</svg>
